<svg xmlns="http://www.w3.org/2000/svg" xmlns:xlink="http://www.w3.org/1999/xlink" version="1.1" x="0px" y="0px" viewBox="0 0 55 68.75" style="enable-background:new 0 0 55 55;" xml:space="preserve"><g><g><g><path d="M22.5712605,51.9997559c-10.7919922,0-19.5712891-8.7792969-19.5712891-19.5708008     s8.7792969-19.5712891,19.5712891-19.5712891s19.5712872,8.7797842,19.5712872,19.5712891     S33.3632507,51.9997559,22.5712605,51.9997559z M22.5712605,13.8576651     c-10.2402344,0-18.5712891,8.3310537-18.5712891,18.5712891c0,10.2397461,8.3310547,18.5708008,18.5712891,18.5708008     s18.5712872-8.3310547,18.5712872-18.5708008C41.1425476,22.1887188,32.8114929,13.8576651,22.5712605,13.8576651z"/></g><g><path d="M22.5712605,51.9997559c-10.7919922,0-19.5712891-8.7792969-19.5712891-19.5708008     s8.7792969-19.5712891,19.5712891-19.5712891s19.5712872,8.7797842,19.5712872,19.5712891     S33.3632507,51.9997559,22.5712605,51.9997559z M22.5712605,13.8576651     c-10.2402344,0-18.5712891,8.3310537-18.5712891,18.5712891c0,10.2397461,8.3310547,18.5708008,18.5712891,18.5708008     s18.5712872-8.3310547,18.5712872-18.5708008C41.1425476,22.1887188,32.8114929,13.8576651,22.5712605,13.8576651z"/></g><g><path d="M22.5712605,45.552002c-7.2363281,0-13.1230469-5.887207-13.1230469-13.1235352     c0-7.2358418,5.8867188-13.1225605,13.1230469-13.1225605c7.2353516,0,13.1220684,5.8867188,13.1220684,13.1225605     C35.6933289,39.6647949,29.806612,45.552002,22.5712605,45.552002z M22.5712605,20.3059063     c-6.6845703,0-12.1230469,5.4379883-12.1230469,12.1225605c0,6.6850586,5.4384766,12.1235352,12.1230469,12.1235352     s12.1220684-5.4384766,12.1220684-12.1235352C34.6933289,25.7438946,29.2558308,20.3059063,22.5712605,20.3059063z"/></g><g><path d="M22.5712605,39.104248c-3.6806641,0-6.6757813-2.9946289-6.6757813-6.6757813     c0-3.680666,2.9951172-6.6748066,6.6757813-6.6748066s6.6748047,2.9941406,6.6748047,6.6748066     C29.2460651,36.1096191,26.2519245,39.104248,22.5712605,39.104248z M22.5712605,26.7536602     c-3.1298828,0-5.6757813,2.5458984-5.6757813,5.6748066c0,3.1293945,2.5458984,5.6757813,5.6757813,5.6757813     c3.1289063,0,5.6748047-2.5463867,5.6748047-5.6757813C28.2460651,29.2995586,25.7001667,26.7536602,22.5712605,26.7536602z"/></g></g><g><g><path d="M21.8212605,33.6789551c-0.1279297,0-0.2558594-0.0488281-0.3535156-0.1464844     c-0.1953125-0.1953125-0.1953125-0.5117188,0-0.7070313l17.3945293-17.3945313     c0.1953125-0.1953125,0.5117188-0.1953125,0.7070313,0s0.1953125,0.5117188,0,0.7070303L22.1747761,33.5324707     C22.0771198,33.630127,21.9491901,33.6789551,21.8212605,33.6789551z"/></g><g><path d="M44.2636414,17.0436993c-0.0244141,0-0.0498047-0.0019531-0.0742188-0.0053711l-5.0478516-0.7592773     c-0.2167969-0.0327148-0.3876953-0.203125-0.4199219-0.4204092l-0.7597656-5.0478516     c-0.0234375-0.1567383,0.0283203-0.3154297,0.140625-0.4277344l7.2363281-7.2368164     c0.1347656-0.1333008,0.3339844-0.1791992,0.5097656-0.121582c0.1796875,0.059082,0.3105469,0.2138672,0.3378906,0.4008789     l0.7050781,4.6826172l4.6826172,0.7041016c0.1865234,0.0283203,0.3417969,0.1591797,0.4003906,0.3383789     c0.0595703,0.1791992,0.0126953,0.3764648-0.1210938,0.5097656l-7.2363281,7.2368155     C44.5224304,16.9919415,44.3954773,17.0436993,44.2636414,17.0436993z M39.6552429,15.3449697l4.4335938,0.6669912     l6.3574219-6.3579092l-4.0683594-0.6118164c-0.2167969-0.0327148-0.3876953-0.203125-0.4199219-0.4204102l-0.6123047-4.0678716     l-6.3574219,6.3579106L39.6552429,15.3449697z"/></g><g><path d="M25.8769245,33.6789551h-4.0556641c-0.2763672,0-0.5-0.2236328-0.5-0.5v-4.0566425c0-0.2763672,0.2236328-0.5,0.5-0.5     s0.5,0.2236328,0.5,0.5v3.5566425h3.5556641c0.2763672,0,0.5,0.2236328,0.5,0.5S26.1532917,33.6789551,25.8769245,33.6789551z"/></g></g></g><text x="0" y="70" fill="#000000" font-size="5px" font-weight="bold" font-family="'Helvetica Neue', Helvetica, Arial-Unicode, Arial, Sans-serif">Created by DinosoftLab</text><text x="0" y="75" fill="#000000" font-size="5px" font-weight="bold" font-family="'Helvetica Neue', Helvetica, Arial-Unicode, Arial, Sans-serif">from the Noun Project</text></svg>