<svg xmlns="http://www.w3.org/2000/svg" xmlns:cc="http://creativecommons.org/ns#" xmlns:dc="http://purl.org/dc/elements/1.1/" xmlns:rdf="http://www.w3.org/1999/02/22-rdf-syntax-ns#" version="1.1" viewBox="0 0 100 125" x="0px" y="0px"><path d="m6.9707 7.3848a1.2493 1.2493 0 0 0-1.25 1.248v6.002a1.2493 1.2493 0 0 0 0.14453 0.58398v23.951c0 2.1832 1.1636 4.1265 2.9141 5.4629 1.0402 0.79416 2.2961 1.3885 3.6816 1.7441v0.35547l0.048828 44.613a1.2493 1.2493 0 0 0 1.25 1.248h71.35a1.2493 1.2493 0 0 0 1.25-1.25l-0.015625-44.59v-0.37305c1.3905-0.35517 2.6497-0.95124 3.6934-1.748 1.7505-1.3364 2.916-3.2797 2.916-5.4629v-23.953a1.2493 1.2493 0 0 0 0.14453-0.58203v-6.002a1.2493 1.2493 0 0 0-1.25-1.248h-84.877zm1.248 2.498h82.379v3.5039h-82.379v-3.5039zm-0.14453 6.002h14.768v23.285c0 1.4067-0.72898 2.7009-2.0469 3.707s-3.213 1.668-5.3379 1.668c-2.1249 0-4.018-0.66184-5.3359-1.668-1.3179-1.0061-2.0469-2.3003-2.0469-3.707v-23.285zm16.977 0h14.766v23.285c0 1.4067-0.72898 2.7009-2.0469 3.707s-3.2111 1.668-5.3359 1.668c-2.1249 0-4.02-0.66184-5.3379-1.668-1.3179-1.0061-2.0449-2.3003-2.0449-3.707v-23.285zm16.975 0h14.768v23.285c0 1.4067-0.72898 2.7009-2.0469 3.707s-3.213 1.668-5.3379 1.668c-2.1249 0-4.018-0.66184-5.3359-1.668-1.3179-1.0061-2.0469-2.3003-2.0469-3.707v-23.285zm16.977 0h14.766v23.285c0 1.4067-0.72703 2.7009-2.0449 3.707s-3.213 1.668-5.3379 1.668c-2.1249 0-4.02-0.66184-5.3379-1.668s-2.0449-2.3003-2.0449-3.707v-23.285zm16.975 0h14.768v23.285c0 1.4067-0.72898 2.7009-2.0469 3.707s-3.2111 1.668-5.3359 1.668c-2.1249 0-4.02-0.66184-5.3379-1.668-1.3179-1.0061-2.0469-2.3003-2.0469-3.707v-23.285zm-52.031 26.818c0.48073 0.72708 1.0925 1.3815 1.8105 1.9297 0.27459 0.20963 0.56844 0.40045 0.87109 0.58203l-0.001953 0.63281-0.089844 23.451a1.2501 1.2501 0 0 0 1.25 1.2559h43.258a1.2501 1.2501 0 0 0 1.25-1.248l0.058593-23.658 0.001954-0.52539c0.24577-0.15394 0.48248-0.31732 0.70898-0.49024 0.71802-0.54817 1.3298-1.2026 1.8105-1.9297 0.4811 0.72698 1.0926 1.3816 1.8105 1.9297 1.7505 1.3364 4.1003 2.1211 6.6777 2.1211 0.1634 0 0.32291-0.013282 0.48438-0.019531v0.019531l0.013672 43.34h-68.852l-0.048828-43.359c0.16597 0.006604 0.33004 0.019531 0.49805 0.019531 2.5774 0 4.9273-0.78471 6.6777-2.1211 0.71794-0.54811 1.3295-1.2027 1.8105-1.9297zm16.977 0c0.4811 0.72698 1.0926 1.3816 1.8105 1.9297 1.7505 1.3364 4.0984 2.1211 6.6758 2.1211 2.5774 0 4.9273-0.78471 6.6777-2.1211 0.71794-0.54811 1.3295-1.2027 1.8105-1.9297 0.48073 0.72708 1.0925 1.3815 1.8105 1.9297 1.7505 1.3364 4.1003 2.1211 6.6777 2.1211 1.2204 0 2.386-0.18071 3.4648-0.50781l-0.054687 21.809h-40.756l0.083985-21.766c1.0361 0.29808 2.1477 0.46484 3.3105 0.46484 2.5774 0 4.9273-0.78471 6.6777-2.1211 0.71802-0.54817 1.3298-1.2026 1.8105-1.9297z" color="#000000" color-rendering="auto" dominant-baseline="auto" image-rendering="auto" shape-rendering="auto" solid-color="#000000" style="font-feature-settings:normal;font-variant-alternates:normal;font-variant-caps:normal;font-variant-ligatures:normal;font-variant-numeric:normal;font-variant-position:normal;isolation:auto;mix-blend-mode:normal;shape-padding:0;text-decoration-color:#000000;text-decoration-line:none;text-decoration-style:solid;text-indent:0;text-orientation:mixed;text-transform:none;white-space:normal;"/><text x="0" y="115" fill="#000000" font-size="5px" font-weight="bold" font-family="'Helvetica Neue', Helvetica, Arial-Unicode, Arial, Sans-serif">Created by Tomi Triyana</text><text x="0" y="120" fill="#000000" font-size="5px" font-weight="bold" font-family="'Helvetica Neue', Helvetica, Arial-Unicode, Arial, Sans-serif">from the Noun Project</text></svg>