<svg xmlns="http://www.w3.org/2000/svg" xmlns:xlink="http://www.w3.org/1999/xlink" version="1.1" x="0px" y="0px" viewBox="0 0 64 80" enable-background="new 0 0 64 64" xml:space="preserve"><g><g><path d="M47.555,5.168C41.258,0.97,34.021-0.03,24.783,2.024C12.838,4.678,8.955,14.814,10.014,21.165    c0.498,2.99,0.953,6.773,0.038,9.519c-0.526,1.578-1.704,2.876-2.844,4.131c-0.84,0.926-1.634,1.8-2.103,2.738    c-0.412,0.825-0.266,1.418-0.069,1.771c0.499,0.901,1.65,1.009,2.763,1.114c0.456,0.043,1.306,0.123,1.494,0.27    C9.977,41.391,10,42.041,10,45c0,3.26,0,5.414,1.293,6.707c1.278,1.279,3.156,0.89,4.972,0.513    c1.935-0.402,3.76-0.781,5.028,0.487c2.164,2.165,1.974,7.34,1.717,9.152c-0.077,0.546,0.303,1.053,0.85,1.13    c0.553,0.081,1.053-0.302,1.131-0.848c0.043-0.306,1.032-7.533-2.283-10.849c-2.033-2.034-4.704-1.478-6.85-1.031    c-1.355,0.282-2.634,0.547-3.15,0.031C12,49.586,12,47.662,12,45c0-3.122,0-4.414-1.293-5.707    c-0.651-0.651-1.703-0.75-2.721-0.847c-0.294-0.028-0.728-0.068-1.023-0.128c0.365-0.659,1.027-1.389,1.726-2.159    c1.22-1.343,2.602-2.866,3.26-4.843c1.055-3.164,0.574-7.263,0.038-10.481c-0.902-5.413,2.679-14.515,13.23-16.859    c8.672-1.927,15.415-1.019,21.229,2.856c5.294,3.53,9.579,11.948,7.585,19.925c-0.893,3.568-3.353,7.263-5.522,10.522    c-2.046,3.073-3.979,5.975-4.488,8.524c-0.691,3.458,0.501,9.199,1.371,13.39c0.306,1.468,0.65,3.128,0.64,3.563    c-0.123,0.487,0.137,1,0.618,1.18C46.765,63.979,46.883,64,47,64c0.404,0,0.786-0.248,0.937-0.649    c0.223-0.593,0.049-1.502-0.587-4.564c-0.789-3.796-1.98-9.533-1.369-12.591c0.433-2.162,2.259-4.904,4.192-7.808    c2.26-3.395,4.821-7.242,5.797-11.146C57.948,19.329,54.252,9.633,47.555,5.168z"/><path d="M48,24c0-0.83-0.118-1.585-0.326-2.271c0.01-0.01,0.023-0.013,0.033-0.022c0.93-0.929,1.865-4.035,1.216-6.786    c-0.378-1.598-1.435-3.697-4.314-4.767c-1.729-2.143-4.397-3.365-7.178-3.29c-1.251,0.035-2.405,0.354-3.368,0.889    c-2.214-1.703-5.16-1.671-7.328,0.136c-1.606-0.361-3.28-0.043-4.575,0.891c-1.135,0.818-1.869,2.011-2.09,3.356    c-1.103,0.315-2.19,1.156-2.889,2.286c-0.637,1.032-1.495,3.186-0.075,6.025c0.042,0.083,0.095,0.157,0.155,0.224    C16.449,21.59,16,22.712,16,24c0,2.256,1.072,3.456,1.973,4.065c0.917,0.621,2.104,0.931,3.475,0.931    c1.301,0,2.77-0.296,4.322-0.854C27.06,29.345,28.494,30,30,30c0.972,0,1.825-0.288,2.613-0.722    c1.079,1.519,2.781,2.501,4.707,2.689c0.656,1.929,0.556,5.407-0.29,8.79c-0.135,0.536,0.191,1.079,0.728,1.213    c0.081,0.021,0.163,0.03,0.243,0.03c0.448,0,0.855-0.303,0.969-0.757c1.067-4.268,1.038-8.464-0.075-10.69    C38.725,30.214,38.379,30,38,30c-1.535,0-2.916-0.702-3.751-1.866c0.438-0.368,0.864-0.76,1.285-1.15    C37.189,25.449,38.753,24,41,24c0.553,0,1-0.448,1-1s-0.447-1-1-1c-3.031,0-5.047,1.869-6.825,3.517C32.737,26.85,31.496,28,30,28    c-2.508,0-4.275-2.786-5.105-4.447c-0.248-0.495-0.848-0.694-1.342-0.447s-0.694,0.848-0.447,1.342    c0.385,0.769,0.805,1.448,1.246,2.065c-2.229,0.671-4.144,0.651-5.258-0.104C18.368,25.917,18,25.107,18,24c0-2.467,2.683-4,7-4    c0.553,0,1-0.448,1-1s-0.447-1-1-1c-2.522,0-4.626,0.506-6.168,1.404c-0.883-1.892-0.357-3.271,0.051-3.931    C19.48,14.506,20.4,14,21,14c0.553,0,1-0.448,1-1c0-1.042,0.484-1.989,1.328-2.598c0.947-0.682,2.171-0.848,3.355-0.454    c0.358,0.121,0.756,0.026,1.023-0.242c1.359-1.359,3.229-1.562,4.753-0.638c-0.101,0.123-0.204,0.244-0.292,0.376    c-0.964,1.446-1.103,2.975-0.39,4.306c0.044,0.083,0.1,0.157,0.148,0.236C31.144,15.976,29.914,16,29,16c-0.553,0-1,0.448-1,1    s0.447,1,1,1c0.896,0,3.099-0.003,4.45-2.519C33.996,15.812,34.555,16,35,16c0.535,0,0.938-0.423,0.961-0.958    S35.545,14.047,35.012,14c-0.219-0.02-1.118-0.454-1.51-1.271c-0.315-0.657-0.207-1.369,0.33-2.175    c0.168-0.252,0.379-0.48,0.625-0.682c0.088-0.046,0.177-0.092,0.25-0.166c0.007-0.007,0.009-0.016,0.016-0.023    c0.725-0.493,1.687-0.79,2.764-0.819c2.25-0.065,4.383,0.961,5.714,2.736c0.122,0.163,0.291,0.284,0.483,0.349    c1.752,0.584,2.852,1.705,3.268,3.333c0.422,1.647,0.044,3.435-0.329,4.386C45.279,17.908,43.133,17,41,17c-0.553,0-1,0.448-1,1    s0.447,1,1,1c2.408,0,5,1.564,5,5c0,2.405-1.529,5-4,5c-0.347,0-0.668,0.18-0.851,0.474c-0.183,0.295-0.199,0.663-0.044,0.973    c0.8,1.6,0.935,6.27-0.054,9.236c-0.175,0.524,0.108,1.09,0.632,1.265C41.789,40.984,41.896,41,42,41    c0.419,0,0.809-0.265,0.948-0.684c0.922-2.764,1.05-6.903,0.398-9.485C46.254,30.078,48,26.937,48,24z"/><path d="M35,18c-2.417,0-5,1.313-5,5c0,0.552,0.447,1,1,1s1-0.448,1-1c0-2.479,1.632-3,3-3c0.553,0,1-0.448,1-1S35.553,18,35,18z"/></g></g><text x="0" y="79" fill="#000000" font-size="5px" font-weight="bold" font-family="'Helvetica Neue', Helvetica, Arial-Unicode, Arial, Sans-serif">Created by Binpodo</text><text x="0" y="84" fill="#000000" font-size="5px" font-weight="bold" font-family="'Helvetica Neue', Helvetica, Arial-Unicode, Arial, Sans-serif">from the Noun Project</text></svg>