<svg xmlns="http://www.w3.org/2000/svg" xmlns:xlink="http://www.w3.org/1999/xlink" version="1.1" x="0px" y="0px" viewBox="0 0 100 125" style="enable-background:new 0 0 100 100;" xml:space="preserve"><path d="M94.36,47.54L78.98,33.22C78.99,33.15,79,33.08,79,33V16c0-1.1-0.9-2-2-2H67c-1.1,0-2,0.9-2,2v4.22L51.36,7.54  c-0.77-0.71-1.96-0.71-2.72,0l-43,40c-0.81,0.75-0.85,2.02-0.1,2.83c0.75,0.81,2.02,0.85,2.83,0.1L17,42.43V91c0,1.1,0.9,2,2,2h18  h24h20c1.1,0,2-0.9,2-2V42.43l8.64,8.04C92.02,50.82,92.51,51,93,51c0.54,0,1.07-0.21,1.46-0.64  C95.22,49.55,95.17,48.29,94.36,47.54z M69,18h6v11.52l-6-5.58V18z M39,89V59h20v30H39z M79,39v50H63V57c0-1.1-0.9-2-2-2H37  c-1.1,0-2,0.9-2,2v32H21V39c0-0.09-0.02-0.18-0.03-0.27l29.03-27l29.03,27C79.02,38.82,79,38.91,79,39z"/><text x="0" y="115" fill="#000000" font-size="5px" font-weight="bold" font-family="'Helvetica Neue', Helvetica, Arial-Unicode, Arial, Sans-serif">Created by IconMark</text><text x="0" y="120" fill="#000000" font-size="5px" font-weight="bold" font-family="'Helvetica Neue', Helvetica, Arial-Unicode, Arial, Sans-serif">from the Noun Project</text></svg>